<svg xmlns="http://www.w3.org/2000/svg" xmlns:xlink="http://www.w3.org/1999/xlink" width="16" height="16" viewBox="0 0 167.889 167.889">
  <defs>
    <clipPath id="clip-path">
      <rect id="Rectangle_1105" data-name="Rectangle 1105" width="167.889" height="167.889" fill="#fff" stroke="#032e5b" stroke-width="1"/>
    </clipPath>
    <clipPath id="clip-path-2">
      <rect id="Rectangle_1107" data-name="Rectangle 1107" width="167.889" height="167.889" fill="#032e5b" stroke="#032e5b" stroke-width="1"/>
    </clipPath>
  </defs>
  <g id="Group_1523" data-name="Group 1523" transform="translate(-209.111 -21.51)">
    <g id="Group_1518" data-name="Group 1518" transform="translate(209.111 21.51)">
      <g id="Group_1517" data-name="Group 1517" transform="translate(0 0)" clip-path="url(#clip-path)">
        <circle id="Ellipse_106" data-name="Ellipse 106" cx="82.33" cy="82.33" r="82.33" transform="translate(1.615 1.615)" fill="#fff" stroke="#032e5b" stroke-miterlimit="10" stroke-width="2.768"/>
      </g>
    </g>
    <rect id="Rectangle_1106" data-name="Rectangle 1106" width="4.266" height="21.737" transform="translate(226.486 96.712)" fill="#032e5b" stroke="#032e5b" stroke-width="1"/>
    <g id="Group_1520" data-name="Group 1520" transform="translate(209.111 21.51)">
      <g id="Group_1519" data-name="Group 1519" transform="translate(0 0)" clip-path="url(#clip-path-2)">
        <path id="Path_638" data-name="Path 638" d="M322.139,234.061a7.75,7.75,0,0,0-3.86-.914,7.316,7.316,0,0,0-4.063,1.016,6.771,6.771,0,0,0-2.337,2.742h-.3V233.35h-4.063v21.737h4.266v-12.9a7.939,7.939,0,0,1,.609-2.945,5.235,5.235,0,0,1,1.829-1.829,5.622,5.622,0,0,1,2.641-.61,4.224,4.224,0,0,1,3.352,1.32,4.965,4.965,0,0,1,1.219,3.658v13.306h4.266V241.272a10.028,10.028,0,0,0-.913-4.469,6.89,6.89,0,0,0-2.642-2.742" transform="translate(-280.284 -158.148)" fill="#032e5b" stroke="#032e5b" stroke-width="1"/>
        <path id="Path_639" data-name="Path 639" d="M365,242.7l-3.454-.812a7.27,7.27,0,0,1-2.641-1.118,2.167,2.167,0,0,1-.812-1.726,2.346,2.346,0,0,1,1.219-2.031,5.655,5.655,0,0,1,3.046-.813,4.878,4.878,0,0,1,2.234.407,4.089,4.089,0,0,1,1.422,1.117,9.29,9.29,0,0,1,.711,1.422l3.86-.711a8.192,8.192,0,0,0-2.641-4.164,9.329,9.329,0,0,0-5.587-1.525,11.528,11.528,0,0,0-4.367.813,7.341,7.341,0,0,0-2.946,2.234,5.329,5.329,0,0,0-1.117,3.352,5.208,5.208,0,0,0,1.422,3.86,8.792,8.792,0,0,0,4.469,2.234l3.656.813a4.535,4.535,0,0,1,2.336,1.016,2.227,2.227,0,0,1,.711,1.727,2.635,2.635,0,0,1-1.219,2.133,5.472,5.472,0,0,1-3.352.914,5.783,5.783,0,0,1-3.149-.812,4.6,4.6,0,0,1-1.523-2.438l-4.063.609a6.793,6.793,0,0,0,2.844,4.469,10.7,10.7,0,0,0,5.992,1.524,10.987,10.987,0,0,0,4.673-.813,6.779,6.779,0,0,0,3.148-2.335A5.846,5.846,0,0,0,371,248.587a4.9,4.9,0,0,0-1.523-3.758A10.19,10.19,0,0,0,365,242.7" transform="translate(-303.139 -157.945)" fill="#032e5b" stroke="#032e5b" stroke-width="1"/>
        <path id="Path_640" data-name="Path 640" d="M413.456,234.467a8.126,8.126,0,0,0-4.673-1.32,7.341,7.341,0,0,0-3.251.711,5.841,5.841,0,0,0-1.93,1.525,9.839,9.839,0,0,0-1.016,1.523h-.3V233.35h-4.164v29.863h4.164v-11.58h.2a11.611,11.611,0,0,0,1.117,1.625,4.953,4.953,0,0,0,1.93,1.523,6.167,6.167,0,0,0,3.251.711,8.118,8.118,0,0,0,4.673-1.32,9.345,9.345,0,0,0,3.25-3.86,15.346,15.346,0,0,0,0-11.986,8.758,8.758,0,0,0-3.25-3.86m-.407,13.815a6.722,6.722,0,0,1-1.93,2.742,4.7,4.7,0,0,1-3.148,1.016,4.992,4.992,0,0,1-3.048-1.016,6.722,6.722,0,0,1-1.93-2.742,10.356,10.356,0,0,1-.711-4.063,11.622,11.622,0,0,1,.609-3.962,5.79,5.79,0,0,1,1.931-2.641,5.469,5.469,0,0,1,3.149-.913,4.7,4.7,0,0,1,3.148,1.015,6.714,6.714,0,0,1,1.93,2.743,11.382,11.382,0,0,1,.609,3.86,11.589,11.589,0,0,1-.609,3.962" transform="translate(-325.587 -158.148)" fill="#032e5b" stroke="#032e5b" stroke-width="1"/>
        <path id="Path_641" data-name="Path 641" d="M462.211,235.483a8.553,8.553,0,0,0-3.149-1.93,10.479,10.479,0,0,0-3.556-.609,10,10,0,0,0-5.281,1.422,9.011,9.011,0,0,0-3.556,3.962,14.844,14.844,0,0,0,0,11.782,9.317,9.317,0,0,0,3.556,3.86,10.479,10.479,0,0,0,5.485,1.422,17.551,17.551,0,0,0,4.266-.507,7.687,7.687,0,0,0,3.149-2.032,6.483,6.483,0,0,0,1.727-3.047l-3.962-.712a5.064,5.064,0,0,1-1.117,1.727,4.849,4.849,0,0,1-1.727,1.016,7.925,7.925,0,0,1-2.234.3,6.694,6.694,0,0,1-3.251-.813,5.313,5.313,0,0,1-2.133-2.336,8.864,8.864,0,0,1-.806-3.554h15.534v-1.524a14.76,14.76,0,0,0-.812-5.078,9.485,9.485,0,0,0-2.133-3.353m-12.578,6.806a5.848,5.848,0,0,1,.693-2.539,6.121,6.121,0,0,1,2.032-2.235,5.474,5.474,0,0,1,3.149-.914,5.156,5.156,0,0,1,2.845.711,4.677,4.677,0,0,1,1.93,2.032,5.514,5.514,0,0,1,.711,2.946Z" transform="translate(-349.254 -158.047)" fill="#032e5b" stroke="#032e5b" stroke-width="1"/>
        <path id="Path_642" data-name="Path 642" d="M504.061,232.945a5.767,5.767,0,0,0-3.454,1.016,4.865,4.865,0,0,0-2.133,2.743h-.2V233.25h-4.063v21.737h4.164V241.68a5.28,5.28,0,0,1,.711-2.54,4.306,4.306,0,0,1,1.828-1.727,5.335,5.335,0,0,1,2.641-.61,5.8,5.8,0,0,1,1.321.1,5.173,5.173,0,0,0,.914.2v-4.063a1.758,1.758,0,0,0-.813-.1Z" transform="translate(-373.632 -158.047)" fill="#032e5b" stroke="#032e5b" stroke-width="1"/>
        <path id="Path_643" data-name="Path 643" d="M539.409,236.5a6.836,6.836,0,0,0-2.133-2.336,8.19,8.19,0,0,0-2.742-1.118,12.586,12.586,0,0,0-2.742-.3,11.6,11.6,0,0,0-3.759.508,8.87,8.87,0,0,0-3.148,1.828,8.082,8.082,0,0,0-2.032,3.25l3.961.915a4.885,4.885,0,0,1,1.727-2.133,5.48,5.48,0,0,1,3.352-.913,4.1,4.1,0,0,1,3.047,1.015,3.619,3.619,0,0,1,1.017,2.844v.1c0,.509-.1.915-.509,1.118a4.382,4.382,0,0,1-1.727.508c-.813.1-1.828.3-3.148.406-1.016.1-2.032.3-3.047.507a8.394,8.394,0,0,0-2.641,1.016,5.824,5.824,0,0,0-1.93,1.93,5.644,5.644,0,0,0-.711,3.047,7.015,7.015,0,0,0,1.016,3.656,5.713,5.713,0,0,0,2.642,2.236,8.889,8.889,0,0,0,3.758.813,6.79,6.79,0,0,0,3.048-.609,5.489,5.489,0,0,0,2.133-1.32,8.48,8.48,0,0,0,1.219-1.626v2.947h4.165V240.359a8.691,8.691,0,0,0-.812-3.859m-3.251,10.462a4.819,4.819,0,0,1-.609,2.438,6.645,6.645,0,0,1-1.93,1.828,5.88,5.88,0,0,1-3.047.711,4.43,4.43,0,0,1-3.047-1.015,2.754,2.754,0,0,1-1.117-2.337,2.648,2.648,0,0,1,.61-1.828,3.71,3.71,0,0,1,1.625-1.016,14.368,14.368,0,0,1,2.236-.507c.406-.1.811-.1,1.32-.2a8.853,8.853,0,0,0,1.625-.2c.507-.1,1.016-.2,1.422-.3a1.535,1.535,0,0,0,.913-.406Z" transform="translate(-387.649 -157.945)" fill="#032e5b" stroke="#032e5b" stroke-width="1"/>
      </g>
    </g>
  </g>
</svg>